<?xml version="1.0" standalone="no"?>
<!DOCTYPE svg PUBLIC "-//W3C//DTD SVG 20010904//EN"
 "http://www.w3.org/TR/2001/REC-SVG-20010904/DTD/svg10.dtd">
<svg version="1.0" xmlns="http://www.w3.org/2000/svg"
 width="1253.000000pt" height="1280.000000pt" viewBox="0 0 1253.000000 1280.000000"
 preserveAspectRatio="xMidYMid meet">
<metadata>
Created by potrace 1.15, written by Peter Selinger 2001-2017
</metadata>
<g transform="translate(0.000000,1280.000000) scale(0.100000,-0.100000)"
fill="#000000" stroke="none">
<path d="M10391 12790 c-85 -18 -151 -82 -204 -198 -18 -39 -22 -65 -21 -152
1 -126 12 -169 61 -235 21 -28 49 -75 62 -105 64 -147 91 -201 124 -248 19
-29 40 -75 47 -104 14 -67 14 -236 0 -288 -23 -87 -101 -139 -340 -228 -251
-94 -311 -104 -350 -57 -15 18 -82 55 -100 55 -17 0 -91 53 -162 116 -86 76
-221 165 -320 212 -46 21 -99 53 -118 71 -19 17 -57 44 -85 60 -97 57 -184 77
-540 125 -543 73 -622 80 -975 80 -291 1 -324 -1 -429 -22 -115 -23 -267 -67
-286 -83 -18 -14 -133 -28 -320 -38 -184 -11 -249 -22 -262 -45 -22 -38 -302
-183 -403 -209 -30 -8 -73 -24 -95 -35 -52 -27 -144 -38 -525 -62 -361 -23
-497 -35 -589 -55 -36 -7 -127 -21 -201 -30 -367 -45 -427 -59 -475 -109 -17
-18 -44 -36 -60 -40 -71 -18 -355 -183 -355 -206 0 -5 -42 -58 -92 -116 -51
-59 -117 -134 -146 -168 -89 -102 -158 -215 -202 -327 -24 -62 -66 -144 -102
-199 -33 -51 -65 -111 -70 -134 -5 -23 -29 -80 -54 -128 -52 -103 -53 -111
-17 -97 51 19 55 -27 5 -51 -36 -17 -180 -28 -463 -36 -231 -7 -237 -7 -271
14 -20 12 -46 22 -59 22 -67 0 -148 71 -190 166 -37 83 -13 188 91 399 74 150
111 198 230 301 109 95 205 155 339 213 142 61 180 97 196 182 6 32 3 39 -29
67 -19 17 -57 43 -83 59 -47 28 -51 28 -203 28 -182 -1 -235 -13 -385 -85 -55
-26 -127 -60 -159 -75 -67 -30 -443 -280 -494 -328 -89 -84 -304 -474 -399
-722 l-38 -100 1 -210 c1 -319 32 -590 74 -647 11 -15 24 -48 30 -74 6 -27 35
-84 67 -133 62 -96 108 -182 118 -223 l7 -27 -96 39 c-53 21 -120 52 -149 69
-54 31 -173 69 -183 58 -3 -3 -1 -65 6 -139 44 -515 161 -881 395 -1233 84
-127 112 -181 149 -285 43 -119 68 -155 128 -183 225 -106 225 -106 280 -167
98 -108 193 -317 262 -575 83 -313 154 -447 288 -546 126 -94 177 -202 218
-464 27 -172 60 -288 107 -378 53 -101 121 -142 221 -135 44 3 47 2 45 -20 -4
-31 17 -68 72 -133 28 -32 77 -115 121 -204 64 -129 76 -161 84 -229 6 -43 25
-126 44 -185 19 -58 39 -147 45 -197 6 -55 26 -140 50 -216 67 -205 71 -325
15 -429 -46 -84 -127 -129 -233 -129 -58 0 -110 -14 -188 -52 -59 -28 -72 -30
-198 -33 -75 -2 -146 -7 -158 -10 -12 -4 -89 -35 -172 -70 -231 -98 -339 -139
-480 -185 -71 -23 -207 -74 -301 -111 -94 -38 -176 -69 -183 -69 -16 0 -101
-43 -196 -100 -69 -41 -127 -71 -244 -124 -12 -6 -51 -48 -86 -94 -136 -181
-294 -479 -352 -662 -20 -63 -61 -173 -90 -245 -76 -183 -160 -395 -170 -430
-5 -19 -28 -44 -61 -69 -59 -44 -109 -132 -139 -246 -22 -85 -24 -244 -3 -285
30 -59 37 -60 460 -60 212 0 398 4 414 8 l29 8 -22 23 c-26 27 -43 82 -35 111
14 50 28 75 50 90 23 15 25 14 34 -10 19 -50 91 -19 140 59 11 19 27 37 36 40
24 9 74 -49 74 -86 0 -24 17 -46 89 -118 48 -49 100 -92 115 -96 20 -5 48 4
111 34 46 23 86 38 89 34 2 -4 7 -24 11 -45 9 -49 30 -57 143 -57 171 0 195
20 301 249 29 62 77 155 106 206 61 106 85 176 85 252 0 89 -26 112 -88 79
-35 -19 -96 -82 -116 -122 -24 -49 -66 -94 -87 -94 -24 0 -24 1 6 60 32 64 31
76 -5 84 -32 6 -120 86 -120 108 0 7 23 47 51 88 93 135 159 298 159 390 0 45
-32 97 -62 102 -13 2 -45 -2 -71 -10 -55 -15 -129 -13 -134 5 -11 32 159 78
255 69 34 -4 62 -4 62 -2 0 3 -9 21 -21 41 -25 42 -20 77 19 118 47 49 96 29
173 -71 l25 -33 58 51 c71 62 103 79 183 96 82 17 143 54 224 134 83 83 122
159 127 249 l5 66 -34 -27 c-86 -69 -140 -101 -150 -91 -19 19 -13 72 12 100
63 69 247 154 298 138 19 -6 41 -51 41 -85 0 -27 26 -43 56 -36 14 4 47 27 73
51 51 48 71 54 91 29 29 -33 50 -37 77 -12 39 36 295 473 358 611 15 31 30 57
34 57 29 0 151 -122 151 -151 0 -14 -53 -103 -131 -220 -77 -116 -159 -260
-159 -280 0 -9 -11 -24 -25 -33 -24 -16 -26 -22 -23 -78 2 -36 8 -63 15 -65 6
-3 71 55 144 126 121 120 159 149 159 121 0 -14 -53 -120 -102 -202 -22 -37
-46 -87 -53 -112 -12 -39 -12 -46 1 -57 13 -11 28 0 93 68 72 74 175 219 303
427 62 101 76 107 186 78 47 -12 97 -29 110 -38 24 -16 24 -16 6 -34 -11 -10
-44 -25 -75 -34 -72 -20 -129 -80 -216 -227 -73 -123 -193 -351 -193 -367 0
-16 121 -73 169 -79 36 -5 45 -2 69 22 42 43 200 113 328 146 63 16 123 33
134 39 27 14 76 78 163 211 71 108 107 153 107 133 2 -62 25 -165 50 -228 20
-50 35 -108 40 -163 15 -147 33 -173 114 -173 47 0 127 26 171 56 21 14 52 27
69 27 26 2 33 8 46 42 28 73 53 90 50 32 -4 -72 1 -73 70 -12 51 45 80 57 80
31 0 -7 -7 -19 -15 -26 -42 -35 10 -73 98 -72 77 1 133 71 122 151 -4 24 -9
51 -13 60 -5 14 -3 14 15 -2 11 -9 27 -17 36 -17 18 0 60 51 76 93 7 17 15 25
22 21 19 -11 3 -94 -35 -179 -19 -44 -37 -92 -41 -107 -6 -25 -5 -27 39 -33
52 -8 61 -19 69 -85 8 -59 25 -70 116 -70 86 0 103 -7 99 -40 -2 -19 3 -25 31
-32 49 -13 164 7 240 42 35 17 65 30 67 30 2 0 3 -21 1 -47 -2 -46 -1 -48 35
-65 26 -12 39 -26 43 -45 14 -61 25 -74 93 -105 37 -16 82 -41 99 -54 25 -19
54 -27 120 -36 120 -14 129 -21 136 -103 7 -77 18 -95 58 -95 41 0 69 14 112
54 21 20 43 34 48 30 13 -8 7 -47 -15 -97 l-17 -39 57 8 57 7 -9 -49 c-13 -72
-10 -169 5 -188 25 -30 50 -18 86 39 41 63 62 79 132 100 72 21 97 45 178 169
40 61 82 119 93 130 21 18 22 18 51 -13 17 -18 44 -57 62 -87 72 -127 113
-144 178 -75 49 52 70 61 127 55 37 -5 63 -1 102 15 92 37 322 67 322 43 0 -5
-9 -35 -20 -67 -22 -65 -26 -141 -8 -180 13 -29 54 -57 111 -75 50 -16 90 -51
137 -120 22 -32 46 -60 55 -64 38 -14 62 -6 86 31 13 21 33 39 43 41 17 4 18
0 12 -34 -20 -100 -20 -93 10 -100 41 -10 52 -21 64 -65 15 -53 55 -99 88 -99
39 0 73 24 201 141 197 180 281 226 294 160 4 -16 30 -55 60 -87 l53 -57 107
52 c84 42 119 54 169 58 83 7 103 -9 169 -138 68 -132 73 -135 197 -119 53 6
135 21 181 31 l84 19 42 -24 c74 -44 159 -155 153 -202 -5 -46 -43 -53 -136
-24 -122 37 -136 37 -163 1 -31 -43 -47 -45 -90 -15 -21 14 -57 30 -81 35 -24
5 -76 23 -116 40 -100 41 -146 45 -282 21 -193 -34 -215 -36 -234 -17 -9 9
-16 21 -16 26 0 5 -9 18 -20 29 -19 19 -23 19 -49 5 -37 -19 -72 -75 -82 -133
-11 -56 -24 -72 -60 -72 -47 0 -74 16 -155 90 -43 39 -81 67 -86 62 -4 -4 -12
-60 -18 -124 -5 -64 -13 -123 -16 -131 -10 -26 104 -32 656 -32 536 0 640 5
640 31 0 15 38 28 67 22 11 -2 19 -14 21 -31 4 -34 23 -34 57 -2 45 41 155 46
196 9 27 -25 262 -33 933 -34 541 0 598 2 592 16 -40 104 -61 215 -85 439 -6
51 -20 113 -32 143 l-23 52 28 115 c31 122 31 129 7 350 -5 50 -15 187 -21
305 -22 432 -64 607 -184 774 -49 70 -277 316 -350 379 -91 79 -121 99 -236
162 -58 31 -169 99 -247 151 -78 52 -195 120 -260 151 -282 133 -326 156 -443
234 -121 80 -201 120 -270 134 -19 3 -116 24 -215 45 -99 22 -236 44 -305 51
-152 13 -210 30 -262 77 -74 66 -95 133 -108 330 -5 76 -16 157 -24 181 -9 24
-16 53 -16 66 0 41 60 143 109 187 27 24 54 53 60 65 8 15 11 70 9 160 -3 153
1 171 62 263 68 101 81 135 84 220 3 119 23 145 241 315 210 163 315 262 315
297 0 59 -53 63 -132 11 -109 -72 -196 -152 -243 -223 -49 -73 -77 -100 -107
-100 -26 0 -38 40 -38 129 0 103 14 175 47 236 14 28 31 72 38 99 18 78 28 79
155 14 95 -49 115 -56 137 -47 41 15 82 48 97 77 18 36 40 184 31 212 -13 40
-195 140 -256 140 -11 0 -39 18 -61 40 -31 30 -45 37 -57 30 -9 -5 -51 -44
-93 -88 -93 -97 -143 -192 -159 -302 -19 -134 -41 -199 -109 -334 -142 -282
-326 -520 -361 -465 -19 31 -3 308 23 389 6 19 37 62 68 95 31 33 69 83 85
110 15 28 74 115 130 195 114 162 137 197 253 390 44 74 84 148 88 163 3 16
23 48 44 72 28 33 39 55 44 95 4 28 20 85 36 125 16 40 36 111 45 157 19 100
44 349 37 362 -7 12 -193 2 -220 -13 -12 -7 -33 -35 -46 -64 -13 -29 -37 -67
-54 -85 -16 -18 -44 -61 -62 -95 -77 -147 -208 -289 -297 -323 -41 -16 -47
-16 -78 -1 -19 9 -46 34 -60 56 -61 98 -147 40 -214 -143 -67 -185 -90 -388
-89 -771 1 -305 -40 -1080 -68 -1280 -25 -181 -68 -314 -133 -409 -37 -53 -80
-81 -139 -91 -24 -4 -45 -12 -47 -18 -2 -7 -6 -24 -9 -38 -14 -66 -173 -261
-233 -286 -56 -23 -209 -160 -465 -416 -200 -200 -267 -260 -346 -311 -193
-127 -668 -366 -867 -436 -102 -36 -243 -69 -294 -70 -30 0 -26 4 45 40 44 22
95 53 114 69 l35 30 -100 -26 c-123 -32 -222 -35 -330 -9 l-80 18 193 48 c316
79 383 114 455 241 29 52 112 131 196 189 93 63 149 119 190 188 36 61 90 112
118 112 26 0 134 85 177 140 30 37 84 86 144 129 102 73 238 201 280 263 26
40 24 68 -6 68 -25 0 -132 -38 -267 -95 -115 -48 -420 -160 -590 -216 -78 -26
-118 -33 -181 -33 -74 -1 -84 1 -130 31 -122 79 -135 85 -202 93 -37 4 -79 13
-93 18 -73 29 -523 92 -659 93 -99 0 -158 -19 -248 -80 -127 -87 -292 -252
-292 -292 0 -27 52 -25 226 6 76 14 181 30 232 35 87 9 96 9 150 -14 31 -13
111 -41 177 -61 144 -44 270 -102 308 -143 19 -20 30 -44 34 -73 7 -56 18 -69
57 -69 51 0 105 -19 117 -42 19 -36 6 -110 -30 -161 -45 -66 -135 -161 -191
-202 -41 -30 -63 -38 -161 -55 -145 -24 -201 -42 -251 -76 -40 -28 -120 -131
-132 -171 -16 -51 85 -68 309 -53 77 5 162 16 190 24 27 9 52 13 55 10 12 -13
-53 -53 -102 -63 -80 -15 -382 -24 -476 -13 -74 9 -86 13 -123 47 -28 25 -46
34 -57 30 -51 -21 -97 -28 -187 -29 -90 -1 -103 1 -129 22 -16 12 -38 22 -50
22 -32 0 -66 28 -66 54 0 32 33 43 145 50 131 8 175 26 263 110 77 73 114 132
104 168 -17 68 -248 104 -320 51 -15 -11 -33 -37 -40 -59 -7 -21 -17 -43 -22
-48 -5 -5 -47 -10 -94 -12 -70 -2 -94 -7 -149 -33 -85 -41 -143 -98 -158 -155
-16 -66 -39 -81 -113 -79 -33 0 -90 9 -126 18 -131 34 -376 151 -450 217 -19
17 -53 42 -75 55 -56 36 -85 64 -85 83 0 9 -25 57 -56 106 -117 184 -213 416
-233 562 -17 128 -95 257 -182 300 -19 9 -35 25 -37 34 -5 28 35 37 119 27 86
-10 371 -10 444 -1 47 7 50 9 53 39 7 68 -46 91 -247 111 -72 7 -98 14 -108
28 -30 41 -2 133 48 159 15 8 64 19 109 24 49 5 88 15 99 25 24 22 33 20 66
-14 36 -38 73 -45 121 -25 49 20 67 37 120 108 51 70 98 107 136 107 23 0 28
-4 28 -25 0 -14 -7 -42 -15 -62 -28 -67 -12 -71 60 -13 131 105 155 121 189
127 33 5 40 2 76 -36 43 -45 60 -50 81 -24 34 40 93 54 281 63 251 13 1053 12
1240 -1 243 -17 323 -40 442 -129 104 -77 151 -88 184 -43 l20 28 46 -23 c50
-24 91 -28 101 -11 4 6 -4 33 -18 60 -15 27 -22 49 -17 49 37 0 164 -100 201
-159 57 -89 43 -102 -151 -149 -342 -83 -418 -82 -740 12 -316 93 -591 163
-690 176 -128 17 -539 24 -658 12 -57 -6 -127 -20 -155 -30 -29 -11 -92 -25
-142 -30 -146 -17 -358 -93 -432 -156 -35 -29 -44 -71 -21 -94 31 -31 163 -9
579 97 130 33 277 68 325 76 157 29 507 17 663 -22 35 -8 126 -42 202 -74 217
-91 388 -136 627 -164 403 -47 834 21 1052 168 30 20 89 66 130 102 79 69 202
139 266 153 32 7 39 12 37 31 -4 29 20 74 66 125 72 79 101 127 101 167 0 31
8 48 36 79 30 33 37 49 39 88 2 29 15 72 34 109 46 92 182 402 234 533 109
279 156 453 164 611 6 130 -3 163 -72 247 -19 24 -35 54 -35 68 0 27 3 28 31
13 28 -15 59 -2 59 25 0 12 -23 58 -51 101 -56 88 -57 99 -24 215 19 68 19
134 1 153 -11 10 -34 13 -93 9 l-78 -4 -49 40 c-27 23 -61 44 -76 47 -14 3
-120 -10 -235 -29 -340 -56 -469 -69 -649 -64 -140 4 -171 8 -241 31 -100 33
-176 80 -300 182 -98 81 -214 161 -325 224 -123 70 -278 227 -252 253 5 5 60
15 123 23 179 24 281 43 459 86 279 68 311 63 682 -109 367 -171 564 -232
1013 -316 247 -47 261 -53 375 -161 75 -72 105 -95 126 -95 26 0 26 2 20 41
-11 68 -75 259 -116 345 -30 63 -54 95 -105 142 -71 67 -167 122 -213 122 -41
0 -89 19 -96 37 -4 9 2 29 11 46 14 23 26 30 49 31 33 1 171 80 235 135 22 18
54 61 71 95 17 33 48 89 70 122 25 40 43 83 49 121 19 105 29 130 60 161 24
24 30 36 25 55 -7 29 -59 57 -108 58 -18 0 -42 4 -53 8 -16 7 -8 11 39 25 33
10 73 15 89 12 67 -14 308 -212 341 -281 10 -22 58 -107 106 -190 49 -84 104
-194 125 -250 49 -133 91 -210 132 -244 19 -15 88 -56 154 -91 203 -107 249
-163 257 -312 2 -48 2 -99 -2 -113 -3 -14 -35 -67 -70 -119 -115 -168 -153
-273 -143 -392 12 -124 88 -254 150 -254 33 0 77 52 123 147 57 117 175 257
249 295 22 12 82 31 133 44 103 25 146 48 191 99 62 71 83 225 61 456 -22 242
-53 385 -111 505 -77 162 -162 188 -222 69 -39 -78 -79 -79 -116 -2 -27 57
-27 101 3 151 29 50 88 93 214 157 79 41 98 47 109 36 7 -7 25 -54 38 -105 14
-50 50 -156 79 -234 82 -221 81 -211 81 -573 -1 -335 -8 -414 -45 -489 -33
-67 -118 -174 -225 -282 -113 -114 -192 -172 -249 -181 -28 -4 -43 -14 -57
-37 -27 -44 -133 -376 -123 -386 101 -90 128 -110 146 -110 31 0 111 86 244
262 60 79 125 161 145 183 20 22 41 57 47 77 14 52 87 143 228 286 78 79 128
122 142 122 50 0 152 211 152 316 0 106 -65 321 -154 510 -34 72 -58 106 -113
161 -54 54 -80 92 -122 174 -46 92 -53 111 -52 164 0 122 35 279 76 351 23 40
48 55 107 68 14 3 88 46 162 96 75 49 162 103 193 119 110 56 264 205 314 304
12 22 27 71 35 111 18 85 50 156 93 211 18 22 35 52 38 67 3 15 15 34 28 42
14 9 27 33 34 63 7 26 41 109 75 183 80 171 76 159 86 266 6 54 27 153 55 248
71 244 75 312 44 656 -14 149 -33 203 -130 367 -45 74 -90 156 -101 182 -11
25 -40 78 -64 117 -25 39 -58 108 -74 153 -39 107 -62 141 -159 234 -45 43
-106 110 -135 150 -61 83 -81 102 -116 112 -34 10 -108 66 -218 167 -110 101
-244 183 -451 278 -217 100 -260 112 -426 116 -77 2 -160 -1 -184 -6z m316
-160 c231 -55 499 -197 629 -332 145 -150 196 -295 259 -743 31 -219 65 -363
95 -405 12 -16 25 -57 31 -90 17 -110 102 -340 125 -340 10 0 47 22 91 56 77
59 83 26 18 -104 -73 -146 -117 -175 -391 -266 -94 -31 -191 -69 -216 -85 -46
-29 -111 -116 -162 -218 -18 -37 -37 -59 -64 -73 -53 -28 -76 -49 -106 -97
-14 -23 -38 -49 -53 -57 -16 -7 -86 -25 -158 -39 -71 -15 -179 -44 -240 -65
-129 -47 -373 -104 -535 -127 -158 -23 -202 -33 -225 -54 -50 -45 -176 -56
-235 -20 -19 12 -41 29 -48 38 -34 42 -62 123 -77 226 -22 150 -68 325 -110
414 -19 40 -35 82 -35 92 0 11 16 60 35 109 19 49 35 95 35 101 0 11 -27 79
-70 174 -10 23 -59 93 -108 157 -50 64 -130 170 -177 236 -47 67 -104 136
-128 155 -74 60 -261 144 -357 161 -308 53 -984 43 -1194 -18 -29 -9 -63 -27
-76 -41 -29 -31 -34 -31 -105 1 l-57 27 -57 -27 c-31 -14 -107 -37 -169 -51
-62 -13 -145 -39 -184 -56 -49 -22 -118 -39 -213 -56 -162 -27 -264 -58 -390
-118 -121 -57 -206 -120 -352 -259 -67 -64 -126 -116 -129 -116 -15 0 6 160
30 235 34 106 34 139 -1 162 -24 16 -59 18 -284 22 l-257 3 -60 -30 c-33 -17
-109 -64 -170 -106 -145 -98 -180 -115 -363 -176 -176 -58 -479 -203 -628
-300 -114 -74 -192 -151 -294 -287 -97 -131 -177 -274 -217 -388 -41 -118 -60
-147 -133 -199 -159 -114 -326 -335 -367 -485 -10 -37 -8 -53 9 -110 50 -162
123 -194 203 -88 36 49 85 87 110 87 23 0 31 -34 19 -73 -16 -47 -62 -87 -166
-147 -138 -78 -160 -112 -130 -203 35 -104 46 -175 52 -344 7 -213 8 -212 -82
-178 -35 13 -65 21 -68 18 -3 -2 -1 -19 4 -36 5 -18 9 -33 9 -33 0 -1 -15 -21
-34 -43 -22 -27 -39 -61 -47 -96 -12 -53 -11 -57 19 -115 44 -84 44 -138 -2
-209 -23 -34 -41 -81 -52 -130 -20 -94 -28 -110 -126 -241 -90 -121 -133 -199
-118 -214 7 -7 68 48 188 166 97 96 191 182 207 191 17 8 68 18 115 22 47 4
110 14 140 22 30 8 83 17 117 20 73 7 388 -16 376 -28 -17 -16 -303 -138 -359
-153 -33 -8 -120 -22 -194 -31 -155 -17 -193 -26 -271 -65 -142 -72 -300 -263
-315 -382 -3 -31 2 -62 20 -112 38 -106 7 -151 -58 -83 -46 49 -61 111 -60
242 2 176 45 367 184 805 44 140 87 293 96 340 9 47 22 119 31 160 34 165 37
200 25 281 -12 84 -36 143 -55 136 -7 -2 -14 -29 -17 -60 -6 -64 -21 -87 -48
-71 -16 11 -96 101 -137 156 l-20 27 -75 -45 c-41 -24 -83 -44 -94 -44 -10 0
-36 16 -57 35 -22 19 -46 35 -55 35 -19 0 -56 -19 -66 -33 -11 -18 18 -75 101
-197 125 -184 153 -249 115 -264 -51 -19 -89 20 -174 177 -103 189 -234 358
-310 396 -19 10 -60 26 -90 35 -59 18 -149 77 -250 164 -34 29 -66 49 -72 46
-15 -9 -3 -165 17 -234 10 -30 28 -70 41 -88 14 -17 31 -47 39 -66 8 -19 32
-47 52 -62 58 -42 59 -44 32 -44 -53 0 -235 182 -357 358 -183 262 -294 645
-262 903 28 231 324 848 432 901 18 9 60 39 92 67 33 27 91 67 130 87 39 21
85 52 102 70 54 56 184 110 389 160 99 24 205 32 205 16 0 -15 -33 -39 -100
-72 -129 -64 -267 -165 -314 -229 -13 -17 -27 -52 -31 -76 -8 -60 -44 -100
-100 -114 -69 -17 -214 -158 -277 -268 -62 -109 -79 -304 -30 -355 26 -28 28
-52 7 -101 -8 -20 -15 -48 -15 -61 0 -33 95 -286 115 -305 25 -26 159 -21 211
6 23 12 44 29 47 38 7 18 -1 45 -14 45 -5 0 -9 5 -9 10 0 6 12 10 26 10 45 0
66 18 59 51 -8 37 17 50 45 24 18 -16 35 -18 183 -12 89 4 264 14 389 24 259
19 258 19 258 -53 0 -62 -20 -72 -166 -84 -135 -11 -181 -22 -216 -50 -33 -25
-106 -41 -144 -32 -19 5 -34 19 -43 40 -17 37 -79 66 -121 57 -41 -9 -134
-113 -194 -218 -41 -70 -34 -77 77 -77 86 0 98 -3 164 -35 83 -41 96 -42 154
-15 56 25 86 25 149 0 68 -27 98 -25 151 9 41 26 56 41 108 110 l18 25 14 -25
c10 -17 14 -64 15 -164 1 -162 1 -165 14 -165 13 0 37 89 50 190 20 147 40
252 65 340 14 47 29 120 35 162 18 144 129 397 243 552 76 105 329 354 483
478 67 53 147 121 180 151 148 137 447 282 794 386 234 70 375 92 690 106 74
3 171 10 216 16 65 7 90 6 134 -7 90 -27 124 -17 370 98 124 58 281 124 350
147 156 51 411 116 516 130 131 19 203 39 303 85 124 56 192 70 305 62 253
-18 1014 -161 1174 -222 43 -16 85 -24 126 -24 80 0 148 -20 268 -80 114 -57
199 -114 248 -165 19 -20 51 -45 71 -55 56 -29 179 -178 179 -217 0 -7 -21
-37 -46 -68 l-45 -56 43 5 c24 3 88 11 143 17 169 18 382 74 615 161 225 84
372 170 437 254 37 49 57 45 51 -10 -4 -31 -13 -52 -31 -68 -33 -30 -55 -97
-74 -230 -23 -159 -6 -214 57 -188 33 14 50 37 50 70 0 12 9 24 24 30 30 11
57 49 104 147 32 67 37 87 37 148 -1 59 -5 79 -33 131 -18 34 -37 90 -43 125
-15 91 -33 132 -101 233 -34 49 -94 157 -135 240 -42 83 -85 165 -98 181 -65
87 -108 234 -109 370 l-1 90 35 12 c55 19 194 15 287 -7z m1242 -979 c66 -34
140 -128 223 -282 93 -174 108 -226 109 -385 1 -130 -4 -164 -26 -164 -24 0
-32 30 -39 135 -8 120 -18 149 -57 165 -41 17 -49 31 -64 105 -18 84 -86 227
-158 332 -77 112 -74 137 12 94z m306 -901 c8 -24 -11 -226 -30 -325 -40 -211
-102 -302 -367 -534 -125 -110 -191 -161 -265 -201 -54 -30 -147 -88 -208
-128 -206 -137 -681 -363 -835 -398 -103 -23 -207 -63 -339 -128 -127 -64
-163 -70 -180 -28 -17 42 -40 162 -34 178 3 8 15 17 28 20 31 8 102 -13 114
-34 5 -9 12 -14 16 -10 7 7 -11 45 -32 66 -37 38 64 119 162 129 30 3 55 7 55
9 0 2 -9 13 -21 25 -16 16 -18 23 -8 35 17 21 81 17 165 -11 111 -37 126 -35
173 28 47 62 79 82 144 90 26 4 60 16 75 27 15 11 88 42 162 68 162 58 183 69
280 139 41 30 124 78 185 108 60 29 142 76 182 104 141 100 327 294 420 440
53 82 72 131 88 222 19 108 53 161 70 109z m-7515 -256 c0 -4 -20 -51 -45
-105 -60 -130 -79 -213 -71 -309 3 -41 13 -97 21 -125 26 -83 22 -131 -17
-220 -64 -143 -71 -201 -38 -307 26 -83 25 -117 -5 -188 -32 -75 -32 -120 -2
-148 28 -27 94 -50 163 -58 53 -7 54 -6 98 37 66 66 72 98 57 287 -17 219 -5
266 86 318 99 57 157 110 256 239 130 167 262 304 300 312 16 3 68 42 125 95
105 96 137 112 159 82 48 -66 86 -320 87 -589 l1 -190 -57 -141 c-35 -84 -58
-155 -58 -177 0 -61 78 -193 159 -271 36 -36 44 -39 68 -30 51 17 103 139 138
324 9 48 20 179 25 302 5 136 13 225 21 240 7 13 64 75 128 138 64 63 152 162
195 220 88 117 164 200 183 200 60 0 -9 -273 -173 -686 -46 -117 -84 -217 -84
-223 0 -14 61 -14 151 0 92 14 110 6 194 -87 88 -98 107 -107 209 -102 83 4
92 7 185 67 56 37 131 129 181 223 l31 57 -22 20 c-31 28 -103 51 -164 51 -61
0 -154 42 -199 89 l-29 30 26 39 c40 61 151 168 199 193 23 12 98 60 166 106
155 105 228 142 311 157 62 11 67 14 84 49 15 33 21 37 55 37 52 0 140 -46
232 -121 41 -33 152 -115 245 -182 264 -189 427 -336 491 -443 39 -66 27 -78
-67 -70 -85 7 -115 -1 -162 -40 -36 -30 -43 -25 -74 52 -32 78 -69 131 -121
169 -56 41 -348 191 -447 230 l-70 27 -43 -22 c-51 -28 -235 -216 -320 -329
-79 -105 -112 -162 -124 -213 -12 -56 -38 -90 -105 -134 -136 -90 -336 -149
-558 -164 -209 -14 -291 -45 -388 -149 -102 -109 -173 -221 -192 -306 -14 -61
-31 -67 -78 -26 -35 31 -59 65 -160 223 -66 103 -87 118 -117 86 -18 -20 -34
-23 -166 -30 -79 -4 -149 -10 -154 -13 -30 -18 3 -105 91 -240 83 -129 120
-161 197 -170 73 -8 179 1 249 22 32 9 65 13 85 9 99 -21 99 -21 183 36 44 29
130 103 190 164 151 152 253 210 466 264 187 48 552 214 736 336 63 41 134
104 250 223 l162 165 108 -100 c136 -126 214 -189 280 -226 29 -16 55 -39 59
-50 3 -11 3 -69 -1 -128 -9 -145 4 -212 55 -262 27 -28 46 -38 69 -38 40 0 80
-38 121 -115 40 -74 77 -115 105 -115 30 0 71 33 155 123 53 57 79 77 94 75
19 -3 21 -10 24 -90 4 -113 -1 -118 -149 -152 -62 -15 -146 -40 -187 -57 -144
-57 -198 -118 -95 -106 55 6 111 -8 141 -36 28 -26 28 -30 -6 -45 -16 -6 -82
-60 -148 -118 -200 -178 -265 -214 -404 -222 -49 -2 -100 -2 -114 2 -45 11
-31 34 32 52 80 23 120 45 181 100 51 46 91 107 91 139 0 9 14 21 30 26 17 6
30 14 30 18 0 15 -36 40 -75 53 -33 11 -44 22 -65 65 -14 28 -36 64 -50 79
-85 90 -358 225 -581 286 -237 65 -862 -10 -1114 -133 -43 -22 -87 -39 -96
-39 -39 0 -153 -169 -196 -290 -17 -49 -23 -87 -23 -153 l0 -89 -55 -54 c-56
-56 -74 -98 -61 -150 7 -25 8 -25 70 -19 103 11 256 -45 256 -94 0 -29 -23
-33 -182 -39 -138 -4 -148 -3 -154 14 -4 11 -35 78 -69 149 -76 159 -119 205
-189 205 -34 0 -57 -9 -104 -40 -34 -23 -71 -57 -83 -76 -18 -30 -26 -34 -46
-29 -22 5 -24 3 -18 -17 29 -96 124 -197 264 -282 70 -42 86 -57 93 -83 9 -34
53 -70 138 -113 72 -36 168 -108 263 -197 64 -60 101 -86 137 -98 94 -31 352
-219 493 -358 77 -74 95 -104 72 -113 -24 -9 -88 23 -190 95 -118 84 -156 101
-230 101 -57 0 -195 -13 -277 -26 -45 -7 -53 6 -79 122 -34 157 -131 343 -214
412 -47 38 -113 62 -174 62 -67 0 -164 18 -225 40 -57 22 -208 138 -233 180
-14 24 -13 29 16 75 18 29 39 86 51 135 11 47 25 105 31 130 12 53 40 87 80
95 36 8 37 29 5 93 -53 104 -194 201 -324 224 -127 21 -245 -12 -408 -115
l-99 -63 -6 -185 c-5 -155 -10 -199 -33 -283 -14 -54 -26 -112 -26 -129 0 -47
-38 -116 -96 -174 -64 -64 -135 -89 -228 -79 -111 11 -101 32 53 111 127 65
215 139 232 195 24 79 -22 353 -76 460 -54 107 -206 215 -343 246 -90 20 -269
15 -374 -10 -166 -40 -359 -123 -513 -222 -143 -91 -247 -154 -257 -154 -14 0
-9 31 18 115 24 75 26 87 18 190 -13 174 -10 234 14 281 28 54 73 92 177 151
59 32 105 68 145 110 52 56 62 63 97 63 64 -1 119 -34 232 -144 115 -110 108
-107 272 -151 30 -8 86 -35 124 -60 64 -41 74 -45 133 -45 35 0 106 5 159 11
89 11 97 10 121 -8 15 -11 42 -46 60 -77 34 -58 80 -96 117 -96 50 0 193 88
283 174 47 45 62 85 60 164 -2 61 7 73 65 88 l42 10 -3 90 c-2 63 1 99 12 125
18 42 42 260 51 459 3 74 8 152 11 173 l6 37 -51 0 c-67 0 -99 -16 -122 -62
-11 -21 -46 -79 -79 -128 -73 -112 -85 -161 -77 -320 7 -137 26 -240 62 -334
40 -106 23 -120 -76 -60 -39 23 -66 33 -79 29 -10 -3 -48 -46 -82 -95 -37 -53
-70 -90 -80 -90 -10 0 -41 21 -70 46 -28 26 -81 61 -117 78 l-66 31 -190 0
c-189 0 -190 0 -235 27 -52 32 -80 53 -80 61 0 3 17 3 38 0 68 -9 112 46 152
188 11 41 20 96 20 124 0 47 -3 54 -42 92 -50 47 -77 63 -110 63 -28 0 -101
-44 -178 -108 -30 -25 -62 -51 -70 -58 -13 -11 -25 -7 -75 27 -117 78 -150 91
-228 87 -43 -2 -71 1 -74 8 -8 25 225 248 317 302 43 26 51 27 185 27 122 0
145 -3 180 -21 56 -29 80 -79 105 -214 11 -63 27 -121 35 -129 14 -14 19 -13
51 4 20 10 45 31 56 45 24 29 22 79 -12 380 -11 96 -20 200 -20 231 0 49 3 59
25 73 14 9 36 38 49 64 57 112 236 314 236 266z m7270 -932 c0 -44 -266 -342
-473 -530 -253 -229 -540 -425 -735 -501 -101 -40 -236 -146 -292 -229 -31
-45 -32 -50 -26 -122 8 -104 35 -203 122 -433 41 -109 74 -204 74 -213 0 -24
-28 -27 -60 -7 -16 10 -56 55 -88 99 -80 108 -204 208 -349 280 -62 31 -117
62 -123 69 -27 33 -24 273 5 311 12 18 14 18 48 -1 29 -15 40 -17 61 -8 13 7
76 72 139 145 213 249 289 305 497 373 400 130 667 295 1024 632 136 128 176
159 176 135z m-9870 -260 c0 -16 -32 -52 -46 -52 -17 0 -18 14 -4 41 10 18 50
27 50 11z m5913 -667 c67 -14 178 -68 161 -77 -5 -3 -40 -16 -79 -28 -136 -44
-421 -152 -614 -232 -340 -140 -481 -183 -606 -181 -94 2 -174 21 -189 45 -8
14 -4 24 24 54 103 108 538 334 749 389 171 44 424 58 554 30z m-6305 -167
c55 -72 142 -210 142 -225 0 -17 -25 -16 -60 2 -20 10 -33 27 -40 53 -5 20
-32 63 -59 94 -47 55 -68 99 -56 118 13 21 34 8 73 -42z m2257 -329 c104 -13
228 -45 289 -76 96 -47 234 -132 240 -149 10 -25 -20 -51 -73 -64 -56 -13 -92
-6 -259 49 -189 63 -511 121 -672 121 -122 0 -130 16 -27 58 187 78 279 89
502 61z m-2818 -95 c48 -37 106 -75 128 -85 22 -11 63 -37 90 -60 60 -48 381
-208 550 -274 192 -75 289 -130 393 -222 l42 -38 -43 -155 c-44 -156 -69 -220
-87 -220 -5 0 -28 37 -51 83 -59 117 -141 240 -207 310 -67 71 -120 106 -403
267 -330 188 -389 235 -490 384 -67 100 -46 103 78 10z m6010 -56 c35 -17 36
-40 3 -49 -39 -11 -161 -10 -202 2 -86 23 -7 72 104 65 37 -3 80 -11 95 -18z
m520 -13 c8 -23 -21 -49 -88 -80 -65 -29 -96 -30 -113 -3 -15 25 18 56 85 79
67 23 108 24 116 4z m-4461 -113 c105 -76 229 -210 211 -228 -8 -8 -60 17 -84
40 -13 13 -55 40 -93 61 -86 44 -110 69 -110 110 0 54 19 58 76 17z m2061 12
c3 -9 -6 -41 -20 -70 -44 -89 -39 -114 42 -198 38 -39 95 -86 125 -105 103
-62 121 -65 346 -66 192 0 208 -1 255 -23 89 -41 205 -169 205 -227 0 -39 -20
-57 -120 -114 -41 -23 -105 -68 -143 -101 -93 -82 -191 -109 -287 -79 -19 5
-73 17 -120 24 -91 16 -120 35 -120 80 0 29 57 80 132 118 63 31 91 33 133 11
140 -75 185 -90 185 -63 0 22 -75 82 -137 111 -86 41 -153 46 -241 19 -77 -23
-142 -73 -142 -108 0 -36 -39 -71 -117 -105 -73 -31 -85 -33 -188 -33 -106 0
-112 1 -172 34 -34 18 -94 62 -134 98 -40 36 -86 74 -103 84 -41 25 -93 24
-137 -4 -126 -76 -147 -87 -177 -87 -24 0 -42 9 -63 29 -24 25 -29 38 -29 79
0 42 6 58 33 94 44 58 146 110 225 116 51 4 62 1 89 -22 52 -44 63 -38 133 79
50 83 93 131 138 152 19 9 44 34 58 59 21 36 25 54 23 101 -2 32 0 63 3 69 4
6 36 14 70 17 35 4 90 15 123 26 77 25 124 26 132 5z m-1673 -275 c50 -33 48
-49 -5 -49 -32 0 -93 39 -97 63 -6 28 49 21 102 -14z m394 -143 c15 -8 36 -24
47 -36 l20 -23 -100 6 c-97 7 -198 21 -240 35 -13 4 6 10 55 18 106 16 186 16
218 0z m152 -209 c0 -89 -11 -107 -88 -146 -148 -75 -267 -200 -367 -389 -37
-68 -121 -147 -171 -161 -79 -21 -213 -31 -399 -31 -301 1 -365 16 -365 84 0
122 289 386 654 596 184 106 232 116 559 119 l177 1 0 -73z m7210 -22 c0 -13
-4 -27 -10 -30 -6 -4 -10 8 -10 30 0 22 4 34 10 30 6 -3 10 -17 10 -30z
m-9379 -92 c43 -45 108 -153 120 -197 8 -30 8 -65 -1 -136 -36 -275 1 -455
137 -680 30 -50 52 -94 48 -98 -11 -10 -100 93 -150 173 -100 161 -136 301
-141 555 -3 105 -8 178 -15 185 -16 16 -36 -19 -49 -84 -18 -94 -32 -140 -46
-152 -17 -14 -71 23 -206 142 -56 50 -115 97 -129 105 -30 15 -47 50 -31 66 6
6 64 13 129 17 131 8 140 11 198 81 63 76 84 80 136 23z m2723 -65 c16 -27 -3
-38 -83 -51 -78 -12 -93 -7 -67 22 44 48 128 64 150 29z m-479 -102 c32 -23 5
-59 -91 -122 -50 -33 -134 -105 -203 -173 -103 -101 -119 -122 -130 -164 -25
-101 -135 -176 -354 -242 -64 -19 -157 -53 -206 -75 -98 -44 -116 -48 -125
-24 -13 34 -5 63 25 88 17 14 34 26 37 26 4 0 53 7 109 14 79 11 115 21 164
47 82 44 202 158 291 277 120 161 255 284 371 338 60 27 85 30 112 10z m811
-127 c40 -20 70 -41 72 -51 5 -27 -82 -113 -140 -138 -66 -29 -147 -37 -172
-17 -19 14 -19 17 -3 80 9 36 26 89 38 118 l23 51 57 -5 c36 -3 82 -17 125
-38z m2257 -40 c71 -30 194 -59 246 -59 35 0 152 -35 206 -62 44 -22 85 -56
85 -71 0 -20 -220 -1 -315 27 -166 49 -370 164 -349 197 7 12 42 3 127 -32z
m-945 -64 c84 -20 128 -44 204 -111 119 -106 313 -182 680 -265 183 -41 258
-64 258 -79 0 -16 65 -30 185 -40 66 -6 198 -20 292 -31 211 -23 298 -24 371
-3 38 11 74 15 113 10 42 -4 60 -2 68 8 14 17 -11 46 -39 46 -11 0 -47 25 -80
54 -34 30 -85 71 -114 90 -53 35 -253 136 -336 170 l-45 19 160 23 c88 13 181
28 208 34 81 17 120 13 163 -18 96 -70 144 -155 169 -300 21 -123 18 -164 -15
-174 -149 -42 -203 -48 -408 -48 -233 0 -392 12 -532 40 -88 18 -137 33 -337
104 -69 24 -192 53 -418 97 -150 29 -201 50 -322 133 -174 119 -177 120 -335
124 -98 3 -167 -1 -238 -13 -129 -21 -311 -78 -347 -109 -91 -76 -307 -141
-510 -153 -135 -8 -240 7 -503 72 -285 71 -323 78 -405 78 -110 0 -186 -49
-297 -192 -76 -97 -188 -210 -231 -232 -55 -29 -200 -59 -283 -59 -56 0 -77 4
-95 19 -22 18 -23 21 -8 36 12 12 46 19 117 25 169 15 228 53 317 204 93 160
203 273 315 324 46 22 68 25 140 24 136 -2 340 -37 540 -94 182 -51 187 -52
325 -52 163 -1 206 8 376 82 63 28 162 71 221 97 60 25 136 52 170 60 90 19
423 19 506 0z m-28 -292 c48 -19 70 -42 70 -72 0 -54 95 -148 208 -205 43 -22
57 -16 79 31 l18 38 125 -2 c190 -2 456 -45 780 -125 123 -30 189 -41 260 -43
52 -2 98 -3 102 -4 4 0 15 -18 23 -38 20 -47 30 -53 81 -46 27 3 44 1 49 -6
11 -19 -3 -58 -23 -63 -12 -3 -37 -42 -67 -103 -58 -120 -134 -205 -181 -205
-47 0 -82 45 -111 143 -8 28 -34 87 -58 130 l-42 78 -18 -71 c-20 -80 -79
-210 -127 -277 -18 -24 -49 -54 -70 -65 -29 -17 -41 -31 -49 -62 -26 -97 -112
-228 -228 -350 -89 -93 -136 -126 -179 -126 -27 0 -43 -9 -73 -39 -46 -46 -54
-91 -16 -91 22 0 101 40 192 98 70 44 94 45 118 4 31 -52 58 -168 64 -275 l6
-99 -99 6 c-54 3 -175 11 -269 16 -215 13 -255 19 -262 37 -3 9 13 101 36 207
47 216 70 372 72 496 2 120 9 145 39 145 27 0 77 -59 127 -150 26 -47 28 -57
28 -170 0 -107 2 -120 18 -123 13 -3 24 10 40 45 20 44 22 63 21 223 0 137 -5
201 -22 295 -52 280 -120 425 -197 425 -39 0 -69 -26 -118 -103 -44 -68 -170
-203 -210 -224 -40 -20 -49 -10 -132 147 -38 72 -81 145 -96 163 l-27 32 -54
-115 c-59 -124 -137 -223 -202 -254 -61 -29 -73 -13 -86 104 -8 82 -18 111
-52 152 -12 15 -27 53 -33 85 -14 68 -29 75 -99 44 -52 -22 -71 -54 -106 -171
-27 -93 -44 -126 -70 -140 -33 -17 -56 -3 -88 53 -31 54 -182 207 -205 207
-17 0 -60 -46 -80 -85 -8 -16 -12 -44 -10 -61 7 -46 -67 -184 -99 -184 -20 0
-93 79 -110 120 -17 40 -112 150 -129 150 -3 0 -9 -41 -13 -91 -13 -174 -33
-229 -81 -229 -39 0 -102 66 -141 148 -62 133 -69 146 -81 150 -18 5 -49 -51
-79 -143 -36 -110 -81 -203 -105 -215 -51 -28 -166 70 -221 186 -31 66 -46
160 -34 209 4 14 34 55 66 90 52 56 60 70 60 103 0 64 33 101 140 155 110 56
156 65 153 30 -2 -13 -23 -54 -49 -92 -49 -74 -61 -125 -33 -144 29 -18 65 1
152 82 93 86 157 126 188 116 16 -5 19 -16 19 -74 0 -54 4 -74 21 -95 32 -41
57 -33 129 40 36 36 80 72 97 80 40 17 323 39 384 30 38 -6 56 -18 121 -81 43
-41 85 -75 94 -75 30 0 54 31 54 68 0 27 -8 42 -36 68 -22 19 -34 39 -31 47 7
18 95 40 163 41 43 1 56 -4 87 -31 21 -18 50 -35 65 -39 89 -19 128 -37 204
-93 47 -33 92 -61 101 -61 26 0 40 38 34 91 -8 61 -29 103 -80 156 -44 46 -44
47 33 62 52 10 111 4 160 -16z m-3469 -154 c7 -14 9 -43 5 -79 -10 -82 9 -180
56 -295 22 -55 44 -114 49 -131 5 -17 29 -56 53 -87 56 -72 63 -105 76 -350
16 -280 20 -302 90 -442 62 -123 67 -142 50 -176 -17 -31 -36 -22 -76 38 -97
147 -204 392 -257 591 -28 109 -31 129 -31 297 l-1 180 -37 65 c-21 36 -44 95
-53 132 -17 73 -25 246 -12 266 14 21 75 15 88 -9z m-418 -359 c94 -44 109
-47 160 -25 46 19 92 4 112 -36 19 -35 19 -89 0 -254 -31 -276 -15 -370 109
-648 31 -68 56 -136 56 -150 0 -32 -68 -87 -108 -87 -29 0 -127 58 -163 97
-64 68 -85 154 -99 418 -27 490 -32 517 -115 599 -42 41 -55 61 -55 83 0 25 7
43 15 43 1 0 41 -18 88 -40z m1337 10 c0 -11 -8 -62 -17 -112 -14 -74 -18
-150 -18 -368 0 -266 1 -279 28 -387 32 -131 33 -149 9 -162 -23 -12 -58 5
-147 72 -207 158 -300 405 -281 746 10 163 12 169 55 181 20 5 90 14 156 20
66 5 134 14 150 19 49 15 65 13 65 -9z m284 -577 c4 -21 10 -123 15 -228 5
-104 14 -203 20 -218 17 -43 13 -115 -9 -185 -29 -91 -26 -152 7 -152 9 0 31
9 50 21 27 17 36 19 48 9 27 -23 16 -39 -37 -55 -83 -24 -439 -95 -481 -95
-52 0 -60 25 -61 190 -1 116 2 141 19 175 28 57 59 58 138 6 84 -54 156 -86
169 -73 7 7 -6 44 -38 114 -46 97 -49 108 -49 184 0 75 3 87 42 165 46 94 115
179 143 179 13 0 20 -10 24 -37z m2275 -384 c43 -43 81 -113 81 -146 0 -11 13
-40 30 -64 29 -43 29 -44 10 -60 -23 -19 -85 -26 -305 -34 -265 -10 -390 -27
-625 -85 -176 -43 -247 -47 -405 -20 -116 20 -166 23 -475 24 -318 1 -348 2
-374 19 -25 17 -28 23 -22 56 6 39 76 232 102 282 8 16 23 33 35 39 17 10 25
6 54 -24 19 -20 64 -87 101 -149 75 -125 91 -147 110 -147 23 0 51 39 64 88
21 76 108 232 129 232 3 0 28 -43 55 -95 48 -96 123 -189 161 -199 36 -10 79
27 120 105 46 89 73 129 86 129 20 0 127 -111 150 -155 45 -85 111 -68 192 50
26 39 56 78 66 89 19 18 20 18 49 -2 16 -12 65 -51 108 -87 100 -84 127 -98
167 -89 37 8 124 87 180 164 46 64 97 120 109 120 4 0 26 -18 47 -41z m1373
-23 c36 -49 94 -172 104 -225 4 -20 -1 -35 -20 -58 -31 -37 -32 -57 -6 -90 44
-56 14 -87 -44 -46 -30 22 -52 27 -133 34 -105 8 -128 14 -155 37 -26 22 -22
53 17 126 19 37 40 88 45 114 19 81 94 168 140 160 8 -2 31 -25 52 -52z
m-4224 -178 c4 -36 -13 -66 -43 -74 -33 -8 -55 11 -55 47 0 57 92 83 98 27z
m4572 -218 c0 -5 -13 -24 -28 -41 -27 -30 -29 -31 -70 -18 -94 28 -73 69 35
69 35 0 63 -4 63 -10z m-132 -96 c29 -20 26 -61 -6 -82 -21 -14 -23 -13 -37
23 -17 38 -12 75 8 75 7 0 23 -7 35 -16z m-508 -197 c17 -30 7 -46 -18 -31
-21 13 -30 68 -10 62 7 -3 20 -16 28 -31z m-3916 -803 c33 -33 7 -127 -43
-154 -26 -13 -27 -5 -5 86 21 92 22 94 48 68z m5955 -445 c17 -6 30 -16 28
-22 -13 -41 -217 -24 -217 19 0 7 6 15 13 18 18 8 138 -2 176 -15z m131 -109
c0 -27 -138 -90 -196 -90 -63 0 -54 59 12 80 74 25 184 30 184 10z m-863 -32
c-2 -40 0 -43 38 -63 35 -19 40 -26 41 -59 1 -50 18 -64 144 -117 93 -39 113
-44 180 -44 51 0 95 8 136 22 33 12 100 25 150 28 109 8 160 21 168 40 7 20
79 20 96 1 6 -8 10 -25 8 -38 -2 -18 -10 -23 -33 -24 -51 -1 -54 -3 -76 -46
-33 -66 -198 -224 -264 -253 -78 -35 -73 -54 28 -105 62 -31 107 -85 114 -137
5 -41 -4 -53 -62 -89 -28 -16 -12 -59 33 -89 20 -14 74 -37 120 -52 75 -23 94
-25 201 -21 79 3 126 1 140 -6 36 -19 74 -86 79 -136 4 -43 1 -50 -32 -83 -39
-40 -160 -114 -218 -134 -48 -16 -69 -8 -148 55 -71 58 -107 69 -247 76 -121
6 -144 16 -228 96 -33 31 -77 62 -99 70 -85 28 -174 -6 -296 -112 -102 -87
-124 -98 -207 -98 -37 0 -97 -7 -131 -15 -78 -18 -115 -7 -120 37 -7 59 147
162 348 234 213 75 326 177 389 347 25 68 27 100 6 117 -25 21 -62 -23 -85
-100 -37 -123 -174 -258 -250 -246 -76 12 -124 105 -136 261 -8 101 1 122 102
225 l72 75 -73 83 c-90 101 -155 200 -158 238 -2 28 0 29 48 35 63 7 120 24
165 49 52 29 59 26 57 -22z m-5492 -317 c7 -13 -53 -81 -71 -81 -23 0 -16 26
15 59 30 32 45 38 56 22z m687 -176 c-7 -15 -20 -25 -32 -25 -26 0 -25 11 1
44 27 34 49 21 31 -19z m3218 23 c0 -30 -55 -126 -98 -170 -42 -44 -67 -47
-116 -14 -20 13 -58 29 -86 36 -27 7 -50 15 -50 20 0 9 121 73 220 116 92 40
130 43 130 12z m1123 -18 c24 0 37 -4 37 -13 0 -23 -54 -99 -136 -191 -198
-222 -268 -306 -312 -373 -67 -103 -78 -104 -145 -9 -14 20 -26 26 -56 26 -28
0 -49 9 -76 30 -32 25 -46 30 -83 28 -44 -3 -44 -3 -61 42 -16 43 -21 47 -143
110 -134 69 -168 93 -168 119 0 21 40 80 103 154 60 70 85 86 93 60 20 -64 35
-82 90 -109 l57 -28 48 28 c59 33 85 28 97 -17 18 -74 150 -90 217 -27 27 26
178 111 261 149 52 23 78 30 104 26 19 -3 52 -6 73 -5z m-2259 -183 c16 -12
16 -14 -6 -33 -13 -11 -44 -28 -70 -38 -51 -19 -101 -63 -94 -82 14 -35 -55
-42 -88 -8 -22 21 -20 31 9 60 14 14 25 27 25 29 0 3 -22 5 -49 5 -52 0 -65 8
-55 34 11 28 79 43 215 45 63 1 101 -3 113 -12z m-3991 -161 c9 -23 -12 -85
-33 -96 -45 -24 -84 -1 -96 58 -6 28 -4 32 27 41 51 14 96 13 102 -3z m9430
-119 c16 -20 18 -30 9 -39 -8 -8 -19 -3 -42 21 -30 33 -31 55 -3 49 9 -2 25
-15 36 -31z m-984 -126 c20 -13 16 -60 -7 -84 -21 -20 -22 -20 -42 -2 -48 43
-5 120 49 86z m-3749 -342 c0 -23 -22 -49 -40 -49 -24 0 -25 8 -4 38 16 23 44
30 44 11z m3561 -212 c41 -68 12 -102 -98 -113 -71 -8 -103 5 -103 41 0 56
118 138 163 113 10 -5 27 -24 38 -41z m-9411 -118 c0 -48 13 -56 47 -29 l28
21 16 -20 c9 -11 25 -53 34 -93 11 -44 27 -81 41 -95 41 -41 103 -26 142 32
24 38 52 46 52 15 0 -11 -5 -40 -12 -65 -18 -68 -2 -75 60 -25 29 22 52 36 52
31 0 -6 -9 -49 -20 -96 -23 -98 -25 -147 -9 -178 26 -48 42 -42 84 28 31 53
68 81 134 101 70 20 105 54 179 169 66 102 99 145 113 145 4 0 10 -9 14 -19
16 -51 -165 -316 -232 -342 -16 -6 -23 -17 -23 -34 0 -26 -4 -29 -51 -39 -14
-3 -64 -40 -110 -81 -102 -92 -158 -128 -196 -123 -31 3 -33 17 -18 111 9 56
-1 60 -52 21 -42 -32 -68 -26 -59 14 4 15 20 62 37 104 16 43 29 80 29 83 0 3
-12 5 -27 5 -43 0 -89 -34 -111 -82 -19 -42 -67 -96 -77 -87 -2 3 0 21 5 40 6
18 10 40 10 46 0 34 -69 -7 -92 -54 -35 -71 -64 -10 -55 115 7 92 4 104 -27
115 -17 7 -18 15 -13 85 6 80 32 172 61 217 23 35 46 17 46 -36z m10084 -163
c18 -39 21 -70 5 -61 -10 7 -19 26 -33 73 -11 35 10 26 28 -12z"/>
<path d="M7375 11691 c-20 -8 -20 -8 1 -15 25 -8 56 2 48 15 -6 11 -21 11 -49
0z"/>
<path d="M10486 11072 c-2 -4 -1 -14 5 -22 14 -24 11 -25 -34 -22 -78 6 -267
-64 -349 -130 -25 -20 -31 -20 -67 -8 -34 11 -47 10 -93 -5 -77 -25 -118 -53
-135 -94 -9 -20 -31 -53 -49 -74 -38 -42 -46 -96 -18 -135 23 -34 92 -64 145
-65 49 -1 99 23 99 46 0 33 50 60 157 84 194 42 316 102 348 169 19 39 49 209
41 230 -6 17 -43 36 -50 26z"/>
<path d="M1071 9414 c-1 -145 10 -209 57 -334 38 -103 56 -130 82 -130 38 0
42 86 5 126 -25 26 -29 41 -40 144 -6 56 -47 190 -83 270 l-21 45 0 -121z"/>
<path d="M1283 534 c-7 -18 6 -45 24 -51 12 -4 24 33 16 53 -7 19 -32 18 -40
-2z"/>
<path d="M10415 5791 l-40 -18 43 -7 c46 -8 132 0 132 13 0 34 -73 41 -135 12z"/>
<path d="M4910 3789 c-30 -5 -152 -28 -270 -51 l-215 -43 -313 0 -312 0 6 -65
c9 -102 30 -147 103 -223 l66 -69 -3 -104 c-2 -75 1 -121 13 -162 58 -199 243
-386 393 -399 77 -6 82 3 43 94 -54 128 -63 162 -58 235 5 83 43 164 97 210
53 46 178 116 279 156 76 31 88 34 116 22 66 -27 74 -25 122 21 70 68 313 366
313 383 0 9 -318 5 -380 -5z"/>
<path d="M3106 1754 c-15 -9 -37 -13 -49 -10 -19 5 -20 2 -14 -81 5 -74 4 -83
-7 -67 -10 13 -24 18 -51 16 -35 -3 -37 -1 -31 22 3 13 9 32 13 42 4 10 -14 1
-46 -24 -60 -48 -71 -50 -96 -22 -23 26 -69 26 -86 0 -9 -13 -33 -23 -64 -29
-50 -9 -52 -11 -113 -91 -18 -22 -32 -30 -56 -30 -37 0 -56 -15 -56 -46 0 -34
-21 -85 -34 -81 -6 2 -12 14 -14 28 -7 65 -14 89 -26 89 -21 0 -28 -28 -21
-85 4 -38 1 -59 -15 -90 l-20 -40 3 33 c2 17 1 32 -3 32 -8 0 -96 -147 -115
-194 -21 -49 -19 -78 7 -111 11 -15 27 -43 34 -64 10 -31 17 -36 48 -39 38 -3
39 -5 19 -59 -3 -7 -1 -13 4 -13 12 0 60 60 98 120 30 50 62 79 85 80 22 0 61
30 55 40 -3 5 -17 5 -32 -1 -14 -5 -28 -8 -30 -5 -4 4 56 106 63 106 2 0 22
-25 45 -55 32 -43 40 -61 37 -85 -7 -50 25 -36 119 52 28 26 57 48 62 48 6 0
11 -13 11 -30 0 -34 19 -40 41 -13 18 20 71 43 103 43 15 0 25 7 29 19 6 25
-10 51 -28 45 -20 -8 -19 4 8 50 31 56 49 59 41 7 -13 -82 31 -37 109 109 67
126 127 273 127 311 -1 32 -1 33 -15 14 -15 -19 -17 -18 -59 28 -23 26 -45 47
-47 47 -2 -1 -17 -8 -33 -16z m84 -144 c0 -23 -42 -91 -53 -87 -23 7 -19 46 7
72 26 26 46 32 46 15z m-164 -137 c-4 -15 -16 -39 -27 -53 l-21 -25 6 32 c6
34 35 87 43 79 3 -3 2 -17 -1 -33z m-196 14 c0 -19 -58 -107 -70 -107 -19 0
-10 37 20 78 30 42 50 53 50 29z m-106 -34 c-17 -27 -34 -27 -34 0 0 27 19 40
35 25 6 -5 6 -14 -1 -25z m14 -147 c-2 -13 -10 -21 -23 -21 -23 0 -33 34 -14
45 20 13 40 -1 37 -24z m92 5 c0 -24 -15 -35 -36 -27 -12 4 -13 10 -4 26 14
26 40 26 40 1z"/>
<path d="M3501 1739 c-12 -13 -26 -40 -31 -61 -10 -36 -61 -98 -82 -98 -6 0
-8 10 -4 25 14 55 18 115 9 115 -44 0 -135 -161 -216 -380 -70 -190 -59 -188
61 13 100 165 119 193 127 185 8 -7 -31 -106 -99 -256 -55 -120 -65 -152 -48
-152 30 0 329 607 308 627 -2 2 -14 -6 -25 -18z"/>
<path d="M3758 1665 c-32 -8 -76 -24 -99 -35 l-41 -21 -5 20 c-3 12 -11 21
-18 21 -20 0 -65 -58 -65 -83 0 -21 1 -21 25 6 31 33 41 34 56 6 15 -29 5 -82
-21 -120 -27 -37 -53 -34 -60 6 -8 48 -36 38 -76 -25 -64 -104 -88 -212 -37
-168 42 35 46 34 39 -16 -4 -25 -18 -77 -30 -114 -25 -74 -40 -169 -31 -194 5
-12 18 -16 50 -15 32 1 51 -4 72 -20 15 -12 45 -34 66 -49 l38 -28 23 29 c20
25 26 28 40 16 9 -7 16 -21 16 -31 0 -26 24 -41 72 -47 24 -3 48 -10 54 -14 6
-5 14 -40 17 -77 7 -82 37 -165 74 -204 34 -36 46 -35 77 4 19 25 32 32 60 32
21 0 44 -7 53 -17 16 -15 15 -18 -2 -37 -24 -27 -32 -118 -12 -144 21 -28 59
-14 83 29 19 36 34 45 34 22 0 -7 -26 -65 -59 -129 -61 -122 -74 -169 -64
-231 l6 -37 616 0 c845 0 886 6 850 118 -34 105 -84 169 -139 178 -44 7 -63
21 -84 61 -9 18 -25 37 -35 43 -11 5 -72 14 -136 20 -64 6 -143 19 -175 30
-94 32 -108 29 -167 -37 l-53 -58 0 63 c0 53 -4 67 -25 87 -13 14 -30 25 -38
25 -21 0 -53 40 -76 93 -29 67 -27 83 10 91 29 5 55 28 106 90 29 35 45 33 89
-14 21 -22 43 -40 49 -40 6 0 22 11 34 24 33 35 107 64 182 72 82 8 206 -10
241 -36 36 -26 54 -25 165 10 52 17 127 33 167 37 64 5 79 3 119 -17 39 -20
55 -22 109 -16 222 24 238 21 269 -52 l19 -45 49 6 c51 6 71 -4 71 -34 0 -49
187 -151 280 -153 l55 -1 3 -92 c2 -63 7 -95 17 -103 7 -6 38 -14 67 -17 52
-5 90 4 196 48 30 13 34 12 43 -4 22 -39 95 -6 148 68 18 25 36 45 41 45 5 0
11 -14 15 -31 6 -26 10 -30 31 -25 23 6 24 5 18 -33 l-6 -39 48 -8 c27 -4 94
-7 149 -8 83 -1 105 2 128 18 15 10 30 16 33 13 7 -7 -50 -150 -82 -204 -13
-23 -36 -51 -50 -62 -48 -38 -124 -20 -124 28 0 10 -6 24 -14 30 -18 15 -50 0
-66 -29 -23 -42 -54 -19 -79 60 l-16 49 -48 -59 c-52 -66 -73 -73 -114 -40
-34 26 -47 25 -89 -7 l-35 -26 7 51 c6 48 5 52 -13 52 -11 0 -37 -13 -58 -30
-21 -16 -46 -30 -57 -30 -31 0 -95 37 -144 86 -80 77 -223 133 -306 119 l-40
-7 7 52 c6 42 4 55 -11 71 -22 24 -44 24 -94 -2 -33 -17 -50 -20 -91 -15 -67
9 -129 -20 -167 -77 -22 -33 -27 -51 -25 -95 l2 -54 -45 7 c-33 5 -52 2 -69
-9 -31 -20 -64 -76 -69 -115 -2 -18 -14 -43 -26 -56 -13 -14 -21 -28 -17 -31
22 -22 181 -26 1147 -31 1148 -5 1704 4 1761 30 19 9 72 17 119 19 95 5 131
19 240 97 83 59 140 110 140 126 0 14 -114 102 -167 129 -44 22 -65 20 -165
-14 -76 -25 -297 -75 -303 -68 -1 2 5 48 13 102 14 92 14 102 -1 129 -10 16
-17 33 -17 38 0 5 22 20 48 33 55 28 77 50 67 67 -12 19 -115 60 -166 66 -42
5 -49 3 -62 -18 -9 -15 -17 -63 -21 -122 -7 -105 -21 -151 -54 -180 -34 -31
-72 -19 -102 33 -16 28 -34 46 -48 48 -39 6 -45 35 -37 174 4 70 3 128 -2 128
-4 0 -25 -11 -45 -25 -38 -26 -86 -94 -157 -224 -48 -88 -105 -160 -117 -149
-4 4 7 31 24 58 18 28 35 62 38 76 5 21 2 26 -25 35 -33 12 -63 57 -76 116 -9
43 -22 49 -44 22 -16 -20 -21 -21 -35 -10 -9 7 -16 19 -16 25 0 6 -4 17 -9 25
-11 17 -33 5 -125 -66 -71 -56 -90 -63 -100 -38 -3 8 -15 15 -26 15 -25 0 -25
-2 0 -42 25 -42 25 -63 -1 -89 -27 -27 -44 -19 -44 22 0 41 -30 54 -43 18 -16
-42 -22 -2 -7 47 16 52 19 96 9 107 -4 4 -25 -9 -46 -29 -43 -39 -64 -35 -70
13 -2 14 -11 31 -21 37 -15 9 -22 7 -37 -11 -15 -19 -19 -20 -24 -7 -3 9 -6
33 -6 54 0 75 -30 71 -122 -19 l-48 -45 0 94 c0 125 -12 170 -46 170 -39 0
-62 -17 -84 -61 -22 -43 -45 -58 -62 -41 -8 8 -4 30 12 75 26 73 22 97 -15 97
-28 0 -77 20 -111 45 -19 14 -23 14 -48 -6 -35 -28 -47 -17 -82 72 -15 38 -30
69 -33 69 -11 0 -116 -131 -147 -183 -19 -33 -38 -53 -52 -55 -35 -5 -38 24
-6 69 21 31 28 52 28 89 0 52 -12 73 -55 96 -29 15 -269 78 -273 72 -2 -1 -30
-37 -63 -79 l-60 -77 -6 93 c-10 164 -43 200 -187 200 -109 -1 -155 -21 -235
-103 -37 -39 -67 -62 -81 -62 -14 0 -31 -12 -44 -30 -17 -25 -28 -30 -60 -30
-31 0 -43 5 -55 24 l-16 25 -34 -20 c-45 -27 -85 -37 -182 -49 -116 -13 -159
-26 -201 -63 -20 -18 -49 -38 -64 -45 -42 -18 -71 -84 -72 -164 -1 -75 -13
-96 -44 -79 -24 13 -42 83 -43 174 -2 98 -8 110 -64 128 -36 11 -54 24 -67 47
-10 18 -42 61 -71 97 -54 66 -77 117 -77 173 0 17 -5 34 -11 37 -17 11 -44
-20 -119 -136 -68 -104 -90 -131 -90 -111 0 6 9 54 20 107 27 130 27 201 0
210 -11 4 -23 20 -28 38 -8 31 -10 32 -63 34 -30 1 -80 -5 -111 -12z m-114
-671 c19 -18 19 -22 5 -62 -11 -33 -36 -49 -52 -33 -11 11 -13 83 -3 100 10
16 32 14 50 -5z m2996 -178 c0 -24 -19 -66 -30 -66 -11 0 -14 63 -3 73 12 12
33 7 33 -7z m-601 -544 c14 -26 -13 -64 -42 -60 -28 4 -34 34 -11 59 22 24 40
24 53 1z m1891 -101 c-6 -12 -15 -21 -20 -21 -16 0 -11 42 8 63 17 19 17 19
20 -1 2 -12 -2 -30 -8 -41z m-1840 -69 c0 -19 -18 -42 -32 -42 -10 0 -11 44
-1 53 13 14 33 7 33 -11z"/>
<path d="M2122 1207 c-22 -23 -30 -67 -13 -67 15 0 51 51 51 71 0 25 -12 24
-38 -4z"/>
<path d="M7761 719 c-10 -28 -4 -56 14 -63 20 -7 37 19 33 51 -4 36 -35 44
-47 12z"/>
<path d="M1077 63 c-13 -12 -7 -51 9 -57 25 -10 72 -7 79 5 17 27 -65 75 -88
52z"/>
</g>
</svg>
